<svg xmlns="http://www.w3.org/2000/svg" viewBox="0 0 24 24">
  <!-- Círculo Exterior Blanco -->
  <circle cx="12" cy="12" r="12" fill="#ffffff" />
  <!-- Ícono Billetera Negro (Centrado y Escaldado) -->
  <g transform="translate(4,4) scale(0.666)" fill="none" stroke="#000000" stroke-width="2" stroke-linecap="round" stroke-linejoin="round">
    <path d="M19 7V4a1 1 0 0 0-1-1H5a2 2 0 0 0 0 4h15a1 1 0 0 1 1 1v4h-3a2 2 0 0 0 0 4h3a8 8 0 0 1-8 8H5a2 2 0 0 1-2-2V7Zm0 0-15 0"/>
    <path d="M22 11v2"/>
    <path d="M22 17v-2"/>
  </g>
</svg>
